--40000LOG 11:55:26:588116000 Waiting for file /home/seluser/videos/vid_chrome_or_firefox_40000* to be created...
Won't start video recording due to VIDEO env var false
ffmpeg version 2.8.17-0ubuntu0.1 Copyright (c) 2000-2020 the FFmpeg developers
  built with gcc 5.4.0 (Ubuntu 5.4.0-6ubuntu1~16.04.12) 20160609
  configuration: --prefix=/usr --extra-version=0ubuntu0.1 --build-suffix=-ffmpeg --toolchain=hardened --libdir=/usr/lib/x86_64-linux-gnu --incdir=/usr/include/x86_64-linux-gnu --cc=cc --cxx=g++ --enable-gpl --enable-shared --disable-stripping --disable-decoder=libopenjpeg --disable-decoder=libschroedinger --enable-avresample --enable-avisynth --enable-gnutls --enable-ladspa --enable-libass --enable-libbluray --enable-libbs2b --enable-libcaca --enable-libcdio --enable-libflite --enable-libfontconfig --enable-libfreetype --enable-libfribidi --enable-libgme --enable-libgsm --enable-libmodplug --enable-libmp3lame --enable-libopenjpeg --enable-libopus --enable-libpulse --enable-librtmp --enable-libschroedinger --enable-libshine --enable-libsnappy --enable-libsoxr --enable-libspeex --enable-libssh --enable-libtheora --enable-libtwolame --enable-libvorbis --enable-libvpx --enable-libwavpack --enable-libwebp --enable-libx265 --enable-libxvid --enable-libzvbi --enable-openal --enable-opengl --enable-x11grab --enable-libdc1394 --enable-libiec61883 --enable-libzmq --enable-frei0r --enable-libx264 --enable-libopencv
  libavutil      54. 31.100 / 54. 31.100
  libavcodec     56. 60.100 / 56. 60.100
  libavformat    56. 40.101 / 56. 40.101
  libavdevice    56.  4.100 / 56.  4.100
  libavfilter     5. 40.101 /  5. 40.101
  libavresample   2.  1.  0 /  2.  1.  0
  libswscale      3.  1.101 /  3.  1.101
  libswresample   1.  2.101 /  1.  2.101
  libpostproc    53.  3.100 / 53.  3.100
Input #0, x11grab, from ':51.0':
  Duration: N/A, start: 1603878926.906047, bitrate: N/A
    Stream #0:0: Video: rawvideo (BGR[0] / 0x524742), bgr0, 1366x768, 10 fps, 10 tbr, 1000k tbn, 10 tbc
[libx264 @ 0x13d6320] using cpu capabilities: MMX2 SSE2Fast SSSE3 SSE4.2 AVX FMA3 AVX2 LZCNT BMI2
[libx264 @ 0x13d6320] profile Constrained Baseline, level 3.2
[libx264 @ 0x13d6320] 264 - core 148 r2643 5c65704 - H.264/MPEG-4 AVC codec - Copyleft 2003-2015 - http://www.videolan.org/x264.html - options: cabac=0 ref=1 deblock=0:0:0 analyse=0:0 me=dia subme=0 psy=1 psy_rd=1.00:0.00 mixed_ref=0 me_range=16 chroma_me=1 trellis=0 8x8dct=0 cqm=0 deadzone=21,11 fast_pskip=1 chroma_qp_offset=0 threads=3 lookahead_threads=1 sliced_threads=0 nr=0 decimate=1 interlaced=0 bluray_compat=0 constrained_intra=0 bframes=0 weightp=0 keyint=250 keyint_min=10 scenecut=0 intra_refresh=0 rc=crf mbtree=0 crf=23.0 qcomp=0.60 qpmin=0 qpmax=69 qpstep=4 ip_ratio=1.40 aq=0
Output #0, matroska, to '/home/seluser/videos/vid_chrome_or_firefox_40000.mkv':
  Metadata:
    encoder         : Lavf56.40.101
    Stream #0:0: Video: h264 (libx264) (H264 / 0x34363248), yuv420p, 1366x768, q=-1--1, 10 fps, 1k tbn, 10 tbc
    Metadata:
      encoder         : Lavc56.60.100 libx264
Stream mapping:
  Stream #0:0 -> #0:0 (rawvideo (native) -> h264 (libx264))
Press [q] to stop, [?] for help
[swscaler @ 0x13e1ca0] Warning: data is not aligned! This can lead to a speedloss
frame=    7 fps=0.0 q=10.0 size=      24kB time=00:00:00.30 bitrate= 658.8kbits/s    
frame=   13 fps= 12 q=9.0 size=      28kB time=00:00:00.90 bitrate= 254.9kbits/s    
frame=   18 fps= 12 q=11.0 size=      29kB time=00:00:01.40 bitrate= 167.5kbits/s    
frame=   24 fps= 11 q=11.0 size=      50kB time=00:00:02.00 bitrate= 203.0kbits/s    
frame=   29 fps= 11 q=9.0 size=      60kB time=00:00:02.50 bitrate= 196.8kbits/s    
frame=   35 fps= 11 q=9.0 size=      62kB time=00:00:03.10 bitrate= 163.0kbits/s    
frame=   40 fps= 11 q=9.0 size=      63kB time=00:00:03.60 bitrate= 143.3kbits/s    
frame=   46 fps= 11 q=9.0 size=      64kB time=00:00:04.20 bitrate= 124.8kbits/s    
frame=   52 fps= 10 q=9.0 size=      66kB time=00:00:04.80 bitrate= 111.8kbits/s    
frame=   57 fps= 10 q=11.0 size=      96kB time=00:00:05.30 bitrate= 148.3kbits/s    
frame=   63 fps= 10 q=10.0 size=     124kB time=00:00:05.90 bitrate= 171.7kbits/s    
frame=   69 fps= 10 q=10.0 size=     129kB time=00:00:06.50 bitrate= 162.9kbits/s    
frame=   75 fps= 10 q=9.0 size=     132kB time=00:00:07.10 bitrate= 152.9kbits/s    
frame=   80 fps= 10 q=10.0 size=     134kB time=00:00:07.60 bitrate= 144.8kbits/s    
frame=   86 fps= 10 q=9.0 size=     139kB time=00:00:08.20 bitrate= 139.4kbits/s    
frame=   92 fps= 10 q=9.0 size=     140kB time=00:00:08.80 bitrate= 130.3kbits/s    
frame=   98 fps= 10 q=9.0 size=     140kB time=00:00:09.40 bitrate= 122.2kbits/s    
frame=  103 fps= 10 q=9.0 size=     141kB time=00:00:09.90 bitrate= 116.3kbits/s    
frame=  109 fps= 10 q=9.0 size=     141kB time=00:00:10.50 bitrate= 110.0kbits/s    
frame=  115 fps= 10 q=9.0 size=     141kB time=00:00:11.10 bitrate= 104.3kbits/s    
frame=  120 fps= 10 q=9.0 size=     142kB time=00:00:11.60 bitrate= 100.0kbits/s    
frame=  125 fps= 10 q=9.0 size=     142kB time=00:00:12.10 bitrate=  96.1kbits/s    
frame=  130 fps= 10 q=9.0 size=     142kB time=00:00:12.60 bitrate=  92.6kbits/s    
frame=  136 fps= 10 q=9.0 size=     143kB time=00:00:13.20 bitrate=  88.7kbits/s    
frame=  141 fps= 10 q=9.0 size=     143kB time=00:00:13.70 bitrate=  85.6kbits/s    
frame=  147 fps= 10 q=9.0 size=     144kB time=00:00:14.30 bitrate=  82.3kbits/s    
frame=  153 fps= 10 q=9.0 size=     144kB time=00:00:14.90 bitrate=  79.2kbits/s    
frame=  159 fps= 10 q=9.0 size=     144kB time=00:00:15.50 bitrate=  76.3kbits/s    
frame=  165 fps= 10 q=9.0 size=     145kB time=00:00:16.10 bitrate=  73.7kbits/s    
frame=  170 fps= 10 q=9.0 size=     145kB time=00:00:16.60 bitrate=  71.6kbits/s    
frame=  175 fps= 10 q=9.0 size=     145kB time=00:00:17.10 bitrate=  69.7kbits/s    
frame=  180 fps= 10 q=9.0 size=     146kB time=00:00:17.60 bitrate=  67.9kbits/s    
frame=  186 fps= 10 q=9.0 size=     146kB time=00:00:18.20 bitrate=  65.8kbits/s    
frame=  191 fps= 10 q=9.0 size=     147kB time=00:00:18.70 bitrate=  64.2kbits/s    
frame=  197 fps= 10 q=9.0 size=     147kB time=00:00:19.30 bitrate=  62.4kbits/s    
frame=  203 fps= 10 q=9.0 size=     147kB time=00:00:19.90 bitrate=  60.7kbits/s    
frame=  209 fps= 10 q=9.0 size=     148kB time=00:00:20.50 bitrate=  59.1kbits/s    
frame=  215 fps= 10 q=9.0 size=     148kB time=00:00:21.10 bitrate=  57.5kbits/s    
frame=  220 fps= 10 q=9.0 size=     149kB time=00:00:21.60 bitrate=  56.3kbits/s    
frame=  225 fps= 10 q=9.0 size=     149kB time=00:00:22.10 bitrate=  55.2kbits/s    
frame=  231 fps= 10 q=9.0 size=     149kB time=00:00:22.70 bitrate=  53.9kbits/s    
frame=  237 fps= 10 q=9.0 size=     150kB time=00:00:23.30 bitrate=  52.7kbits/s    
frame=  243 fps= 10 q=9.0 size=     150kB time=00:00:23.90 bitrate=  51.5kbits/s    
frame=  249 fps= 10 q=9.0 size=     151kB time=00:00:24.50 bitrate=  50.4kbits/s    
frame=  255 fps= 10 q=15.0 size=     222kB time=00:00:25.10 bitrate=  72.5kbits/s    
frame=  261 fps= 10 q=9.0 size=     222kB time=00:00:25.70 bitrate=  70.9kbits/s    
frame=  266 fps= 10 q=9.0 size=     223kB time=00:00:26.20 bitrate=  69.6kbits/s    
frame=  271 fps= 10 q=9.0 size=     223kB time=00:00:26.70 bitrate=  68.4kbits/s    
frame=  277 fps= 10 q=9.0 size=     223kB time=00:00:27.30 bitrate=  66.9kbits/s    
frame=  282 fps= 10 q=9.0 size=     225kB time=00:00:27.80 bitrate=  66.3kbits/s    
frame=  288 fps= 10 q=9.0 size=     225kB time=00:00:28.40 bitrate=  65.0kbits/s    
frame=  293 fps= 10 q=9.0 size=     226kB time=00:00:28.90 bitrate=  64.0kbits/s    
frame=  299 fps= 10 q=9.0 size=     226kB time=00:00:29.50 bitrate=  62.8kbits/s    
frame=  305 fps= 10 q=9.0 size=     226kB time=00:00:30.10 bitrate=  61.6kbits/s    
frame=  311 fps= 10 q=9.0 size=     226kB time=00:00:30.70 bitrate=  60.4kbits/s    
frame=  317 fps= 10 q=9.0 size=     227kB time=00:00:31.30 bitrate=  59.4kbits/s    
frame=  322 fps= 10 q=9.0 size=     227kB time=00:00:31.80 bitrate=  58.5kbits/s    
frame=  328 fps= 10 q=9.0 size=     227kB time=00:00:32.40 bitrate=  57.5kbits/s    
frame=  333 fps= 10 q=9.0 size=     228kB time=00:00:32.90 bitrate=  56.7kbits/s    
frame=  339 fps= 10 q=9.0 size=     228kB time=00:00:33.50 bitrate=  55.8kbits/s    
frame=  344 fps= 10 q=9.0 size=     228kB time=00:00:34.00 bitrate=  55.0kbits/s    
frame=  349 fps= 10 q=9.0 size=     229kB time=00:00:34.50 bitrate=  54.3kbits/s    
frame=  355 fps= 10 q=9.0 size=     229kB time=00:00:35.10 bitrate=  53.5kbits/s    
frame=  360 fps= 10 q=9.0 size=     229kB time=00:00:35.60 bitrate=  52.8kbits/s    
frame=  366 fps= 10 q=9.0 size=     230kB time=00:00:36.20 bitrate=  52.0kbits/s    
frame=  371 fps= 10 q=9.0 size=     230kB time=00:00:36.70 bitrate=  51.3kbits/s    
frame=  377 fps= 10 q=9.0 size=     230kB time=00:00:37.30 bitrate=  50.6kbits/s    
frame=  381 fps= 10 q=9.0 size=     230kB time=00:00:37.70 bitrate=  50.1kbits/s    
frame=  388 fps= 10 q=9.0 size=     231kB time=00:00:38.40 bitrate=  49.2kbits/s    
frame=  393 fps= 10 q=9.0 size=     231kB time=00:00:38.90 bitrate=  48.7kbits/s    
frame=  399 fps= 10 q=9.0 size=     231kB time=00:00:39.50 bitrate=  48.0kbits/s    
frame=  405 fps= 10 q=9.0 size=     232kB time=00:00:40.10 bitrate=  47.3kbits/s    
frame=  410 fps= 10 q=9.0 size=     232kB time=00:00:40.60 bitrate=  46.8kbits/s    
frame=  414 fps= 10 q=9.0 size=     232kB time=00:00:41.00 bitrate=  46.4kbits/s    
frame=  420 fps= 10 q=9.0 size=     232kB time=00:00:41.60 bitrate=  45.8kbits/s    
frame=  426 fps= 10 q=9.0 size=     233kB time=00:00:42.20 bitrate=  45.2kbits/s    
frame=  432 fps= 10 q=9.0 size=     233kB time=00:00:42.80 bitrate=  44.6kbits/s    
frame=  437 fps= 10 q=9.0 size=     234kB time=00:00:43.30 bitrate=  44.2kbits/s    
frame=  442 fps= 10 q=9.0 size=     234kB time=00:00:43.80 bitrate=  43.7kbits/s    
frame=  448 fps= 10 q=9.0 size=     234kB time=00:00:44.40 bitrate=  43.2kbits/s    
frame=  453 fps= 10 q=9.0 size=     234kB time=00:00:44.90 bitrate=  42.7kbits/s    
frame=  460 fps= 10 q=9.0 size=     235kB time=00:00:45.60 bitrate=  42.2kbits/s    
frame=  465 fps= 10 q=9.0 size=     235kB time=00:00:46.10 bitrate=  41.7kbits/s    
frame=  470 fps= 10 q=9.0 size=     235kB time=00:00:46.60 bitrate=  41.4kbits/s    
frame=  476 fps= 10 q=9.0 size=     236kB time=00:00:47.20 bitrate=  40.9kbits/s    
frame=  482 fps= 10 q=9.0 size=     236kB time=00:00:47.80 bitrate=  40.4kbits/s    
frame=  487 fps= 10 q=9.0 size=     236kB time=00:00:48.30 bitrate=  40.1kbits/s    
frame=  493 fps= 10 q=9.0 size=     237kB time=00:00:48.90 bitrate=  39.6kbits/s    
frame=  498 fps= 10 q=9.0 size=     237kB time=00:00:49.40 bitrate=  39.3kbits/s    
frame=  504 fps= 10 q=17.0 size=     237kB time=00:00:50.00 bitrate=  38.8kbits/s    
frame=  510 fps= 10 q=10.0 size=     308kB time=00:00:50.60 bitrate=  49.8kbits/s    
frame=  516 fps= 10 q=9.0 size=     308kB time=00:00:51.20 bitrate=  49.3kbits/s    
frame=  521 fps= 10 q=9.0 size=     308kB time=00:00:51.70 bitrate=  48.9kbits/s    
frame=  527 fps= 10 q=9.0 size=     309kB time=00:00:52.30 bitrate=  48.4kbits/s    
frame=  532 fps= 10 q=9.0 size=     309kB time=00:00:52.80 bitrate=  47.9kbits/s    
frame=  537 fps= 10 q=9.0 size=     309kB time=00:00:53.30 bitrate=  47.5kbits/s    
frame=  542 fps= 10 q=9.0 size=     309kB time=00:00:53.80 bitrate=  47.1kbits/s    
frame=  548 fps= 10 q=9.0 size=     310kB time=00:00:54.40 bitrate=  46.7kbits/s    
frame=  553 fps= 10 q=9.0 size=     310kB time=00:00:54.90 bitrate=  46.3kbits/s    
frame=  559 fps= 10 q=9.0 size=     310kB time=00:00:55.50 bitrate=  45.8kbits/s    
frame=  565 fps= 10 q=9.0 size=     311kB time=00:00:56.10 bitrate=  45.4kbits/s    
frame=  570 fps= 10 q=9.0 size=     311kB time=00:00:56.60 bitrate=  45.0kbits/s    
frame=  576 fps= 10 q=9.0 size=     311kB time=00:00:57.20 bitrate=  44.6kbits/s    
frame=  582 fps= 10 q=9.0 size=     312kB time=00:00:57.80 bitrate=  44.2kbits/s    
frame=  584 fps= 10 q=9.0 size=     312kB time=00:00:58.00 bitrate=  44.0kbits/s    
frame=  594 fps= 10 q=9.0 size=     312kB time=00:00:59.00 bitrate=  43.3kbits/s    
frame=  600 fps= 10 q=9.0 size=     312kB time=00:00:59.60 bitrate=  42.9kbits/s    
frame=  605 fps= 10 q=9.0 size=     313kB time=00:01:00.10 bitrate=  42.6kbits/s    
frame=  610 fps= 10 q=9.0 size=     313kB time=00:01:00.60 bitrate=  42.3kbits/s    
frame=  616 fps= 10 q=9.0 size=     313kB time=00:01:01.20 bitrate=  41.9kbits/s    
frame=  620 fps= 10 q=9.0 size=     313kB time=00:01:01.60 bitrate=  41.7kbits/s    
frame=  626 fps= 10 q=9.0 size=     314kB time=00:01:02.20 bitrate=  41.3kbits/s    
frame=  632 fps= 10 q=9.0 size=     314kB time=00:01:02.80 bitrate=  41.0kbits/s    
frame=  638 fps= 10 q=9.0 size=     314kB time=00:01:03.40 bitrate=  40.6kbits/s    
frame=  642 fps= 10 q=9.0 size=     315kB time=00:01:03.80 bitrate=  40.4kbits/s    
frame=  649 fps= 10 q=9.0 size=     315kB time=00:01:04.50 bitrate=  40.0kbits/s    
frame=  654 fps= 10 q=9.0 size=     315kB time=00:01:05.00 bitrate=  39.7kbits/s    
frame=  660 fps= 10 q=9.0 size=     316kB time=00:01:05.60 bitrate=  39.4kbits/s    
frame=  665 fps= 10 q=9.0 size=     316kB time=00:01:06.10 bitrate=  39.1kbits/s    
frame=  670 fps= 10 q=9.0 size=     316kB time=00:01:06.60 bitrate=  38.9kbits/s    
frame=  672 fps=9.9 q=9.0 size=     316kB time=00:01:06.80 bitrate=  38.8kbits/s    
frame=  676 fps=9.9 q=9.0 size=     318kB time=00:01:07.20 bitrate=  38.8kbits/s    
frame=  684 fps= 10 q=9.0 size=     319kB time=00:01:08.00 bitrate=  38.4kbits/s    
frame=  692 fps= 10 q=9.0 size=     319kB time=00:01:08.80 bitrate=  38.0kbits/s    
frame=  700 fps= 10 q=9.0 size=     319kB time=00:01:09.60 bitrate=  37.6kbits/s    
frame=  705 fps= 10 q=9.0 size=     319kB time=00:01:10.10 bitrate=  37.3kbits/s    
frame=  711 fps= 10 q=9.0 size=     320kB time=00:01:10.70 bitrate=  37.1kbits/s    
frame=  716 fps= 10 q=9.0 size=     320kB time=00:01:11.20 bitrate=  36.8kbits/s    
frame=  721 fps= 10 q=9.0 size=     320kB time=00:01:11.70 bitrate=  36.6kbits/s    
frame=  726 fps= 10 q=9.0 size=     321kB time=00:01:12.20 bitrate=  36.4kbits/s    
frame=  732 fps= 10 q=9.0 size=     321kB time=00:01:12.80 bitrate=  36.1kbits/s    
frame=  738 fps= 10 q=9.0 size=     321kB time=00:01:13.40 bitrate=  35.9kbits/s    
frame=  741 fps= 10 q=9.0 size=     322kB time=00:01:13.70 bitrate=  35.7kbits/s    
frame=  749 fps= 10 q=9.0 size=     322kB time=00:01:14.50 bitrate=  35.4kbits/s    
frame=  755 fps= 10 q=15.0 size=     392kB time=00:01:15.10 bitrate=  42.8kbits/s    
frame=  760 fps= 10 q=10.0 size=     393kB time=00:01:15.60 bitrate=  42.6kbits/s    
frame=  765 fps= 10 q=9.0 size=     393kB time=00:01:16.10 bitrate=  42.3kbits/s    
frame=  769 fps= 10 q=9.0 size=     393kB time=00:01:16.50 bitrate=  42.1kbits/s    
frame=  774 fps= 10 q=9.0 size=     393kB time=00:01:17.00 bitrate=  41.9kbits/s    
frame=  782 fps= 10 q=9.0 size=     394kB time=00:01:17.80 bitrate=  41.5kbits/s    
frame=  784 fps=9.9 q=9.0 size=     394kB time=00:01:18.00 bitrate=  41.4kbits/s    
frame=  787 fps=9.9 q=9.0 size=     394kB time=00:01:18.30 bitrate=  41.2kbits/s    
frame=  791 fps=9.9 q=9.0 size=     394kB time=00:01:18.70 bitrate=  41.0kbits/s    
frame=  795 fps=9.8 q=9.0 size=     395kB time=00:01:19.10 bitrate=  40.9kbits/s    
frame=  797 fps=9.8 q=9.0 size=     395kB time=00:01:19.30 bitrate=  40.8kbits/s    
frame=  801 fps=9.8 q=9.0 size=     395kB time=00:01:19.70 bitrate=  40.6kbits/s    
frame=  808 fps=9.8 q=9.0 size=     396kB time=00:01:20.40 bitrate=  40.3kbits/s    
frame=  823 fps=9.9 q=9.0 size=     396kB time=00:01:21.90 bitrate=  39.6kbits/s    
frame=  833 fps= 10 q=9.0 size=     398kB time=00:01:22.90 bitrate=  39.3kbits/s    
frame=  843 fps= 10 q=9.0 size=     398kB time=00:01:23.90 bitrate=  38.9kbits/s    
frame=  849 fps= 10 q=9.0 size=     399kB time=00:01:24.50 bitrate=  38.6kbits/s    
frame=  854 fps= 10 q=9.0 size=     399kB time=00:01:25.00 bitrate=  38.4kbits/s    
frame=  859 fps= 10 q=9.0 size=     399kB time=00:01:25.50 bitrate=  38.3kbits/s    
frame=  861 fps= 10 q=9.0 size=     399kB time=00:01:25.70 bitrate=  38.2kbits/s    
frame=  866 fps= 10 q=9.0 size=     400kB time=00:01:26.20 bitrate=  38.0kbits/s    
frame=  869 fps=9.9 q=9.0 size=     400kB time=00:01:26.50 bitrate=  37.9kbits/s    
frame=  872 fps=9.9 q=9.0 size=     400kB time=00:01:26.80 bitrate=  37.8kbits/s    
frame=  874 fps=9.8 q=9.0 size=     400kB time=00:01:27.00 bitrate=  37.7kbits/s    
frame=  876 fps=9.8 q=9.0 size=     401kB time=00:01:27.20 bitrate=  37.6kbits/s    
frame=  881 fps=9.8 q=9.0 size=     401kB time=00:01:27.70 bitrate=  37.4kbits/s    
frame=  883 fps=9.7 q=9.0 size=     401kB time=00:01:27.90 bitrate=  37.4kbits/s    
frame=  884 fps=9.7 q=9.0 size=     401kB time=00:01:28.00 bitrate=  37.3kbits/s    
frame=  886 fps=9.6 q=9.0 size=     401kB time=00:01:28.20 bitrate=  37.3kbits/s    
frame=  889 fps=9.6 q=9.0 size=     401kB time=00:01:28.50 bitrate=  37.2kbits/s    
frame=  893 fps=9.6 q=9.0 size=     402kB time=00:01:28.90 bitrate=  37.0kbits/s    
frame=  896 fps=9.5 q=9.0 size=     402kB time=00:01:29.20 bitrate=  36.9kbits/s    
frame=  898 fps=9.5 q=9.0 size=     402kB time=00:01:29.40 bitrate=  36.9kbits/s    
frame=  901 fps=9.4 q=9.0 size=     403kB time=00:01:29.70 bitrate=  36.8kbits/s    
frame=  904 fps=9.4 q=9.0 size=     403kB time=00:01:30.00 bitrate=  36.6kbits/s    
frame=  907 fps=9.4 q=9.0 size=     403kB time=00:01:30.30 bitrate=  36.5kbits/s    
frame=  909 fps=9.3 q=9.0 size=     403kB time=00:01:30.50 bitrate=  36.5kbits/s    
frame=  911 fps=9.3 q=9.0 size=     403kB time=00:01:30.70 bitrate=  36.4kbits/s    
frame=  914 fps=9.3 q=9.0 size=     403kB time=00:01:31.00 bitrate=  36.3kbits/s    
frame=  918 fps=9.2 q=9.0 size=     404kB time=00:01:31.40 bitrate=  36.2kbits/s    
frame=  920 fps=9.2 q=9.0 size=     404kB time=00:01:31.60 bitrate=  36.1kbits/s    
frame=  922 fps=9.2 q=9.0 size=     404kB time=00:01:31.80 bitrate=  36.1kbits/s    
frame=  925 fps=9.1 q=9.0 size=     404kB time=00:01:32.10 bitrate=  36.0kbits/s    
frame=  929 fps=9.1 q=9.0 size=     405kB time=00:01:32.50 bitrate=  35.8kbits/s    
frame=  931 fps=9.1 q=9.0 size=     405kB time=00:01:32.70 bitrate=  35.8kbits/s    
frame=  934 fps=9.0 q=9.0 size=     405kB time=00:01:33.00 bitrate=  35.7kbits/s    
frame=  937 fps=9.0 q=9.0 size=     405kB time=00:01:33.30 bitrate=  35.6kbits/s    
frame=  940 fps=9.0 q=9.0 size=     405kB time=00:01:33.60 bitrate=  35.5kbits/s    
frame=  942 fps=8.9 q=9.0 size=     406kB time=00:01:33.80 bitrate=  35.4kbits/s    
frame=  947 fps=8.9 q=9.0 size=     406kB time=00:01:34.30 bitrate=  35.3kbits/s    
frame=  953 fps=9.0 q=9.0 size=     406kB time=00:01:34.90 bitrate=  35.1kbits/s    
frame=  957 fps=8.9 q=9.0 size=     406kB time=00:01:35.30 bitrate=  34.9kbits/s    
frame=  960 fps=8.9 q=9.0 size=     407kB time=00:01:35.60 bitrate=  34.8kbits/s    
frame=  964 fps=8.9 q=9.0 size=     407kB time=00:01:36.00 bitrate=  34.7kbits/s    
frame=  969 fps=8.9 q=9.0 size=     407kB time=00:01:36.50 bitrate=  34.6kbits/s    
frame=  975 fps=8.9 q=9.0 size=     407kB time=00:01:37.10 bitrate=  34.4kbits/s    
frame=  976 fps=8.8 q=9.0 size=     408kB time=00:01:37.20 bitrate=  34.3kbits/s    
frame=  978 fps=8.7 q=9.0 size=     408kB time=00:01:37.40 bitrate=  34.3kbits/s    
frame=  979 fps=8.7 q=9.0 size=     408kB time=00:01:37.50 bitrate=  34.2kbits/s    
frame=  980 fps=8.6 q=9.0 size=     408kB time=00:01:37.60 bitrate=  34.2kbits/s    
frame=  983 fps=8.6 q=9.0 size=     408kB time=00:01:37.90 bitrate=  34.1kbits/s    
frame=  985 fps=8.5 q=9.0 size=     408kB time=00:01:38.10 bitrate=  34.1kbits/s    
frame=  987 fps=8.5 q=9.0 size=     408kB time=00:01:38.30 bitrate=  34.0kbits/s    
frame=  989 fps=8.4 q=9.0 size=     409kB time=00:01:38.50 bitrate=  34.0kbits/s    
frame=  991 fps=8.4 q=9.0 size=     409kB time=00:01:38.70 bitrate=  33.9kbits/s    
frame=  993 fps=8.4 q=9.0 size=     409kB time=00:01:38.90 bitrate=  33.9kbits/s    
frame=  995 fps=8.4 q=9.0 size=     409kB time=00:01:39.10 bitrate=  33.8kbits/s    
frame=  997 fps=8.3 q=9.0 size=     410kB time=00:01:39.30 bitrate=  33.8kbits/s    
frame=  998 fps=8.3 q=9.0 size=     410kB time=00:01:39.40 bitrate=  33.8kbits/s    
frame=  999 fps=8.2 q=9.0 size=     410kB time=00:01:39.50 bitrate=  33.7kbits/s    
frame= 1000 fps=8.1 q=9.0 size=     410kB time=00:01:39.60 bitrate=  33.7kbits/s    
frame= 1002 fps=8.1 q=9.0 size=     410kB time=00:01:39.80 bitrate=  33.6kbits/s    
frame= 1003 fps=8.1 q=6.0 size=     410kB time=00:01:39.90 bitrate=  33.6kbits/s    
frame= 1004 fps=8.0 q=17.0 size=     410kB time=00:01:40.00 bitrate=  33.6kbits/s    
frame= 1005 fps=8.0 q=15.0 size=     480kB time=00:01:40.10 bitrate=  39.3kbits/s    
frame= 1007 fps=7.9 q=12.0 size=     481kB time=00:01:40.30 bitrate=  39.3kbits/s    
frame= 1008 fps=7.9 q=11.0 size=     481kB time=00:01:40.40 bitrate=  39.2kbits/s    
frame= 1009 fps=7.8 q=10.0 size=     481kB time=00:01:40.50 bitrate=  39.2kbits/s    
frame= 1010 fps=7.7 q=10.0 size=     481kB time=00:01:40.60 bitrate=  39.2kbits/s    
frame= 1011 fps=7.7 q=9.0 size=     481kB time=00:01:40.70 bitrate=  39.1kbits/s    
frame= 1012 fps=7.6 q=9.0 size=     481kB time=00:01:40.80 bitrate=  39.1kbits/s    
frame= 1014 fps=7.6 q=9.0 size=     483kB time=00:01:41.00 bitrate=  39.2kbits/s    
frame= 1015 fps=7.6 q=9.0 size=     483kB time=00:01:41.10 bitrate=  39.1kbits/s    
frame= 1017 fps=7.5 q=9.0 size=     483kB time=00:01:41.30 bitrate=  39.1kbits/s    
frame= 1019 fps=7.5 q=9.0 size=     484kB time=00:01:41.50 bitrate=  39.0kbits/s    
frame= 1020 fps=7.4 q=9.0 size=     484kB time=00:01:41.60 bitrate=  39.0kbits/s    
frame= 1021 fps=7.4 q=9.0 size=     484kB time=00:01:41.70 bitrate=  39.0kbits/s    
frame= 1022 fps=7.3 q=9.0 size=     484kB time=00:01:41.80 bitrate=  38.9kbits/s    
frame= 1023 fps=7.3 q=9.0 size=     484kB time=00:01:41.90 bitrate=  38.9kbits/s    
frame= 1024 fps=7.2 q=9.0 size=     484kB time=00:01:42.00 bitrate=  38.9kbits/s    
frame= 1025 fps=7.1 q=9.0 size=     484kB time=00:01:42.10 bitrate=  38.9kbits/s    
frame= 1026 fps=7.1 q=9.0 size=     484kB time=00:01:42.20 bitrate=  38.8kbits/s    
frame= 1027 fps=7.0 q=9.0 size=     484kB time=00:01:42.30 bitrate=  38.8kbits/s    
frame= 1028 fps=7.0 q=9.0 size=     485kB time=00:01:42.40 bitrate=  38.8kbits/s    
frame= 1029 fps=7.0 q=9.0 size=     485kB time=00:01:42.50 bitrate=  38.7kbits/s    
frame= 1030 fps=6.9 q=9.0 size=     485kB time=00:01:42.60 bitrate=  38.7kbits/s    
frame= 1031 fps=6.9 q=9.0 size=     485kB time=00:01:42.70 bitrate=  38.7kbits/s    
frame= 1032 fps=6.8 q=9.0 size=     485kB time=00:01:42.80 bitrate=  38.7kbits/s    
frame= 1033 fps=6.8 q=9.0 size=     485kB time=00:01:42.90 bitrate=  38.6kbits/s    
frame= 1034 fps=6.8 q=9.0 size=     485kB time=00:01:43.00 bitrate=  38.6kbits/s    
frame= 1035 fps=6.7 q=9.0 size=     485kB time=00:01:43.10 bitrate=  38.6kbits/s    
frame= 1036 fps=6.6 q=9.0 size=     486kB time=00:01:43.20 bitrate=  38.5kbits/s    
frame= 1037 fps=6.5 q=9.0 size=     486kB time=00:01:43.30 bitrate=  38.5kbits/s    
frame= 1038 fps=6.5 q=9.0 size=     486kB time=00:01:43.40 bitrate=  38.5kbits/s    
frame= 1039 fps=6.4 q=9.0 size=     486kB time=00:01:43.50 bitrate=  38.5kbits/s    
frame= 1040 fps=6.4 q=9.0 size=     486kB time=00:01:43.60 bitrate=  38.4kbits/s    
frame= 1041 fps=6.4 q=9.0 size=     486kB time=00:01:43.70 bitrate=  38.4kbits/s    
frame= 1042 fps=6.3 q=9.0 size=     487kB time=00:01:43.80 bitrate=  38.4kbits/s    
frame= 1043 fps=6.3 q=9.0 size=     487kB time=00:01:43.90 bitrate=  38.4kbits/s    
frame= 1044 fps=6.3 q=9.0 size=     487kB time=00:01:44.00 bitrate=  38.3kbits/s    
frame= 1045 fps=6.2 q=9.0 size=     488kB time=00:01:44.10 bitrate=  38.4kbits/s    
frame= 1046 fps=6.2 q=9.0 size=     488kB time=00:01:44.20 bitrate=  38.4kbits/s    
frame= 1047 fps=6.2 q=9.0 size=     489kB time=00:01:44.30 bitrate=  38.4kbits/s    
frame= 1048 fps=6.2 q=9.0 size=     489kB time=00:01:44.40 bitrate=  38.3kbits/s    
frame= 1050 fps=6.1 q=9.0 size=     489kB time=00:01:44.60 bitrate=  38.3kbits/s    
frame= 1051 fps=6.1 q=9.0 size=     489kB time=00:01:44.70 bitrate=  38.3kbits/s    
frame= 1053 fps=6.1 q=9.0 size=     489kB time=00:01:44.90 bitrate=  38.2kbits/s    
frame= 1054 fps=6.0 q=9.0 size=     489kB time=00:01:45.00 bitrate=  38.2kbits/s    
frame= 1055 fps=6.0 q=9.0 size=     489kB time=00:01:45.10 bitrate=  38.1kbits/s    
frame= 1056 fps=5.9 q=9.0 size=     489kB time=00:01:45.20 bitrate=  38.1kbits/s    
frame= 1057 fps=5.9 q=9.0 size=     490kB time=00:01:45.30 bitrate=  38.1kbits/s    
frame= 1058 fps=5.9 q=9.0 size=     490kB time=00:01:45.40 bitrate=  38.1kbits/s    
frame= 1060 fps=5.8 q=9.0 size=     490kB time=00:01:45.60 bitrate=  38.0kbits/s    
frame= 1061 fps=5.8 q=9.0 size=     490kB time=00:01:45.70 bitrate=  38.0kbits/s    
frame= 1063 fps=5.8 q=9.0 size=     490kB time=00:01:45.90 bitrate=  37.9kbits/s    
frame= 1064 fps=5.7 q=9.0 size=     490kB time=00:01:46.00 bitrate=  37.9kbits/s    
frame= 1065 fps=5.6 q=9.0 size=     490kB time=00:01:46.10 bitrate=  37.9kbits/s    
frame= 1066 fps=5.6 q=9.0 size=     491kB time=00:01:46.20 bitrate=  37.8kbits/s    
frame= 1067 fps=5.6 q=9.0 size=     491kB time=00:01:46.30 bitrate=  37.8kbits/s    
frame= 1068 fps=5.5 q=9.0 size=     491kB time=00:01:46.40 bitrate=  37.8kbits/s    
frame= 1069 fps=5.5 q=9.0 size=     491kB time=00:01:46.50 bitrate=  37.8kbits/s    
frame= 1070 fps=5.4 q=9.0 size=     491kB time=00:01:46.60 bitrate=  37.7kbits/s    
frame= 1071 fps=5.4 q=9.0 size=     491kB time=00:01:46.70 bitrate=  37.7kbits/s    
frame= 1072 fps=5.3 q=9.0 size=     491kB time=00:01:46.80 bitrate=  37.7kbits/s    
frame= 1073 fps=5.2 q=9.0 size=     492kB time=00:01:46.90 bitrate=  37.7kbits/s    
frame= 1074 fps=5.2 q=9.0 size=     492kB time=00:01:47.00 bitrate=  37.6kbits/s    
frame= 1075 fps=5.1 q=9.0 size=     492kB time=00:01:47.10 bitrate=  37.6kbits/s    
frame= 1076 fps=5.0 q=9.0 size=     492kB time=00:01:47.20 bitrate=  37.6kbits/s    
frame= 1077 fps=5.0 q=9.0 size=     492kB time=00:01:47.30 bitrate=  37.6kbits/s    
frame= 1078 fps=4.9 q=9.0 size=     492kB time=00:01:47.40 bitrate=  37.5kbits/s    
frame= 1079 fps=4.9 q=9.0 size=     492kB time=00:01:47.50 bitrate=  37.5kbits/s    
frame= 1080 fps=4.8 q=9.0 size=     493kB time=00:01:47.60 bitrate=  37.5kbits/s    
frame= 1081 fps=4.8 q=9.0 size=     493kB time=00:01:47.70 bitrate=  37.5kbits/s    
frame= 1082 fps=4.7 q=9.0 size=     493kB time=00:01:47.80 bitrate=  37.5kbits/s    
frame= 1083 fps=4.7 q=9.0 size=     493kB time=00:01:47.90 bitrate=  37.4kbits/s    
frame= 1084 fps=4.6 q=9.0 size=     493kB time=00:01:48.00 bitrate=  37.4kbits/s    
frame= 1085 fps=4.5 q=9.0 size=     493kB time=00:01:48.10 bitrate=  37.4kbits/s    
frame= 1086 fps=4.5 q=9.0 size=     493kB time=00:01:48.20 bitrate=  37.4kbits/s    
frame= 1087 fps=4.5 q=9.0 size=     494kB time=00:01:48.30 bitrate=  37.3kbits/s    
frame= 1088 fps=4.4 q=9.0 size=     494kB time=00:01:48.40 bitrate=  37.3kbits/s    
frame= 1089 fps=4.4 q=9.0 size=     494kB time=00:01:48.50 bitrate=  37.3kbits/s    
frame= 1090 fps=4.3 q=9.0 size=     494kB time=00:01:48.60 bitrate=  37.3kbits/s    
frame= 1091 fps=4.3 q=9.0 size=     494kB time=00:01:48.70 bitrate=  37.2kbits/s    
frame= 1092 fps=4.3 q=9.0 size=     494kB time=00:01:48.80 bitrate=  37.2kbits/s    
frame= 1093 fps=4.2 q=9.0 size=     494kB time=00:01:48.90 bitrate=  37.2kbits/s    
frame= 1094 fps=4.2 q=9.0 size=     495kB time=00:01:49.00 bitrate=  37.2kbits/s    
frame= 1095 fps=4.2 q=9.0 size=     495kB time=00:01:49.10 bitrate=  37.2kbits/s    
frame= 1096 fps=4.1 q=9.0 size=     495kB time=00:01:49.20 bitrate=  37.1kbits/s    
frame= 1097 fps=4.1 q=9.0 size=     495kB time=00:01:49.30 bitrate=  37.1kbits/s    
frame= 1098 fps=4.1 q=9.0 size=     495kB time=00:01:49.40 bitrate=  37.1kbits/s    
frame= 1099 fps=4.0 q=9.0 size=     495kB time=00:01:49.50 bitrate=  37.1kbits/s    
frame= 1100 fps=4.0 q=9.0 size=     495kB time=00:01:49.60 bitrate=  37.0kbits/s    
frame= 1101 fps=3.9 q=9.0 size=     496kB time=00:01:49.70 bitrate=  37.0kbits/s    
frame= 1102 fps=3.9 q=9.0 size=     496kB time=00:01:49.80 bitrate=  37.0kbits/s    
frame= 1103 fps=3.8 q=9.0 size=     496kB time=00:01:49.90 bitrate=  37.0kbits/s    
frame= 1104 fps=3.8 q=9.0 size=     496kB time=00:01:50.00 bitrate=  37.0kbits/s    
frame= 1105 fps=3.8 q=9.0 size=     496kB time=00:01:50.10 bitrate=  36.9kbits/s    
frame= 1106 fps=3.7 q=9.0 size=     497kB time=00:01:50.20 bitrate=  36.9kbits/s    
frame= 1107 fps=3.7 q=9.0 size=     497kB time=00:01:50.30 bitrate=  36.9kbits/s    
frame= 1108 fps=3.6 q=9.0 size=     497kB time=00:01:50.40 bitrate=  36.9kbits/s    
frame= 1109 fps=3.6 q=9.0 size=     497kB time=00:01:50.50 bitrate=  36.9kbits/s    
frame= 1110 fps=3.6 q=9.0 size=     497kB time=00:01:50.60 bitrate=  36.8kbits/s    
frame= 1111 fps=3.5 q=9.0 size=     497kB time=00:01:50.70 bitrate=  36.8kbits/s    
frame= 1112 fps=3.5 q=9.0 size=     498kB time=00:01:50.80 bitrate=  36.8kbits/s    
frame= 1113 fps=3.5 q=9.0 size=     498kB time=00:01:50.90 bitrate=  36.8kbits/s    
frame= 1114 fps=3.4 q=9.0 size=     498kB time=00:01:51.00 bitrate=  36.7kbits/s    
frame= 1115 fps=3.4 q=9.0 size=     498kB time=00:01:51.10 bitrate=  36.7kbits/s    
frame= 1116 fps=3.4 q=9.0 size=     499kB time=00:01:51.20 bitrate=  36.8kbits/s    
frame= 1117 fps=3.4 q=9.0 size=     500kB time=00:01:51.30 bitrate=  36.8kbits/s    
frame= 1118 fps=3.3 q=9.0 size=     500kB time=00:01:51.40 bitrate=  36.7kbits/s    
frame= 1119 fps=3.3 q=9.0 size=     500kB time=00:01:51.50 bitrate=  36.7kbits/s    
frame= 1120 fps=3.3 q=9.0 size=     500kB time=00:01:51.60 bitrate=  36.7kbits/s    
frame= 1121 fps=3.3 q=9.0 size=     502kB time=00:01:51.70 bitrate=  36.8kbits/s    
frame= 1122 fps=3.3 q=9.0 size=     502kB time=00:01:51.80 bitrate=  36.8kbits/s    
frame= 1123 fps=3.3 q=9.0 size=     502kB time=00:01:51.90 bitrate=  36.7kbits/s    
frame= 1124 fps=3.3 q=9.0 size=     502kB time=00:01:52.00 bitrate=  36.7kbits/s    
frame= 1125 fps=3.3 q=9.0 size=     504kB time=00:01:52.10 bitrate=  36.8kbits/s    
frame= 1126 fps=3.3 q=9.0 size=     504kB time=00:01:52.20 bitrate=  36.8kbits/s    
frame= 1127 fps=3.3 q=9.0 size=     504kB time=00:01:52.30 bitrate=  36.8kbits/s    
frame= 1128 fps=3.2 q=9.0 size=     504kB time=00:01:52.40 bitrate=  36.7kbits/s    
frame= 1129 fps=3.2 q=9.0 size=     506kB time=00:01:52.50 bitrate=  36.8kbits/s    
frame= 1130 fps=3.2 q=9.0 size=     506kB time=00:01:52.60 bitrate=  36.8kbits/s    
frame= 1131 fps=3.2 q=9.0 size=     506kB time=00:01:52.70 bitrate=  36.8kbits/s    
frame= 1132 fps=3.2 q=9.0 size=     506kB time=00:01:52.80 bitrate=  36.7kbits/s    
frame= 1133 fps=3.2 q=9.0 size=     506kB time=00:01:52.90 bitrate=  36.7kbits/s    
frame= 1134 fps=3.2 q=9.0 size=     506kB time=00:01:53.00 bitrate=  36.7kbits/s    
frame= 1135 fps=3.1 q=9.0 size=     506kB time=00:01:53.10 bitrate=  36.7kbits/s    
frame= 1136 fps=3.1 q=9.0 size=     508kB time=00:01:53.20 bitrate=  36.7kbits/s    
frame= 1137 fps=3.1 q=9.0 size=     508kB time=00:01:53.30 bitrate=  36.7kbits/s    
frame= 1138 fps=3.1 q=9.0 size=     508kB time=00:01:53.40 bitrate=  36.7kbits/s    
frame= 1139 fps=3.0 q=9.0 size=     509kB time=00:01:53.50 bitrate=  36.8kbits/s    
frame= 1140 fps=3.0 q=9.0 size=     510kB time=00:01:53.60 bitrate=  36.8kbits/s    
frame= 1141 fps=3.0 q=9.0 size=     510kB time=00:01:53.70 bitrate=  36.7kbits/s    
frame= 1142 fps=3.0 q=9.0 size=     511kB time=00:01:53.80 bitrate=  36.8kbits/s    
frame= 1143 fps=3.0 q=9.0 size=     512kB time=00:01:53.90 bitrate=  36.8kbits/s    
frame= 1144 fps=3.0 q=9.0 size=     512kB time=00:01:54.00 bitrate=  36.8kbits/s    
frame= 1145 fps=3.0 q=9.0 size=     512kB time=00:01:54.10 bitrate=  36.7kbits/s    
frame= 1146 fps=2.9 q=9.0 size=     512kB time=00:01:54.20 bitrate=  36.7kbits/s    
frame= 1147 fps=2.9 q=9.0 size=     512kB time=00:01:54.30 bitrate=  36.7kbits/s    
frame= 1148 fps=2.9 q=9.0 size=     512kB time=00:01:54.40 bitrate=  36.7kbits/s    
frame= 1150 fps=2.9 q=9.0 size=     512kB time=00:01:54.60 bitrate=  36.6kbits/s    
frame= 1152 fps=2.9 q=9.0 size=     513kB time=00:01:54.80 bitrate=  36.6kbits/s    
frame= 1153 fps=2.9 q=9.0 size=     513kB time=00:01:54.90 bitrate=  36.6kbits/s    
frame= 1154 fps=2.9 q=9.0 size=     513kB time=00:01:55.00 bitrate=  36.6kbits/s    
frame= 1156 fps=2.9 q=9.0 size=     513kB time=00:01:55.20 bitrate=  36.5kbits/s    
frame= 1158 fps=2.9 q=9.0 size=     513kB time=00:01:55.40 bitrate=  36.4kbits/s    
frame= 1159 fps=2.9 q=9.0 size=     514kB time=00:01:55.50 bitrate=  36.4kbits/s    
frame= 1161 fps=2.9 q=9.0 size=     514kB time=00:01:55.70 bitrate=  36.4kbits/s    
frame= 1163 fps=2.9 q=9.0 size=     514kB time=00:01:55.90 bitrate=  36.3kbits/s    
frame= 1166 fps=2.9 q=9.0 size=     515kB time=00:01:56.20 bitrate=  36.3kbits/s    
frame= 1169 fps=2.9 q=9.0 size=     515kB time=00:01:56.50 bitrate=  36.2kbits/s    
frame= 1170 fps=2.9 q=9.0 size=     515kB time=00:01:56.60 bitrate=  36.2kbits/s    
frame= 1172 fps=2.9 q=9.0 size=     515kB time=00:01:56.80 bitrate=  36.1kbits/s    
frame= 1173 fps=2.9 q=9.0 size=     515kB time=00:01:56.90 bitrate=  36.1kbits/s    
frame= 1175 fps=2.9 q=9.0 size=     516kB time=00:01:57.10 bitrate=  36.1kbits/s    
frame= 1176 fps=2.9 q=9.0 size=     516kB time=00:01:57.20 bitrate=  36.1kbits/s    
frame= 1177 fps=2.9 q=9.0 size=     516kB time=00:01:57.30 bitrate=  36.0kbits/s    
frame= 1178 fps=2.9 q=9.0 size=     516kB time=00:01:57.40 bitrate=  36.0kbits/s    
frame= 1180 fps=2.9 q=9.0 size=     516kB time=00:01:57.60 bitrate=  36.0kbits/s    
frame= 1182 fps=2.9 q=9.0 size=     517kB time=00:01:57.80 bitrate=  35.9kbits/s    
frame= 1183 fps=2.9 q=9.0 size=     517kB time=00:01:57.90 bitrate=  35.9kbits/s    
frame= 1184 fps=2.9 q=9.0 size=     517kB time=00:01:58.00 bitrate=  35.9kbits/s    
frame= 1185 fps=2.9 q=9.0 size=     517kB time=00:01:58.10 bitrate=  35.9kbits/s    
frame= 1186 fps=2.8 q=9.0 size=     517kB time=00:01:58.20 bitrate=  35.8kbits/s    
frame= 1187 fps=2.8 q=9.0 size=     517kB time=00:01:58.30 bitrate=  35.8kbits/s    
frame= 1188 fps=2.8 q=9.0 size=     519kB time=00:01:58.40 bitrate=  35.9kbits/s    
frame= 1189 fps=2.8 q=9.0 size=     519kB time=00:01:58.50 bitrate=  35.9kbits/s    
frame= 1190 fps=2.8 q=9.0 size=     519kB time=00:01:58.60 bitrate=  35.9kbits/s    
frame= 1191 fps=2.8 q=9.0 size=     520kB time=00:01:58.70 bitrate=  35.9kbits/s    
frame= 1191 fps=2.8 q=-1.0 Lsize=     520kB time=00:01:59.10 bitrate=  35.8kbits/s    
video:512kB audio:0kB subtitle:0kB other streams:0kB global headers:0kB muxing overhead: 1.648407%
[libx264 @ 0x13d6320] frame I:5     Avg QP: 8.80  size: 60739
[libx264 @ 0x13d6320] frame P:1186  Avg QP: 9.16  size:   185
[libx264 @ 0x13d6320] mb I  I16..4: 100.0%  0.0%  0.0%
[libx264 @ 0x13d6320] mb P  I16..4:  0.4%  0.0%  0.0%  P16..4:  0.1%  0.0%  0.0%  0.0%  0.0%    skip:99.5%
[libx264 @ 0x13d6320] coded y,uvDC,uvAC intra: 7.9% 5.4% 5.2% inter: 0.0% 0.0% 0.0%
[libx264 @ 0x13d6320] i16 v,h,dc,p: 83% 15%  1%  0%
[libx264 @ 0x13d6320] i8c dc,h,v,p: 84% 12%  3%  0%
[libx264 @ 0x13d6320] kb/s:35.16
Exiting normally, received signal 2.
--40000LOG 12:02:48:739229400 Trapped SIGTERM or SIGINT so shutting down ffmpeg gracefully...
--40000LOG 12:03:02:572758300 Will kill VID_TOOL_PID=539 ...
--40000LOG 12:03:13:354648100 Tried to kill -SIGTERM VID_TOOL_PID=539
--40000LOG 12:03:15:236739100 Waiting up to 6s for VID_TOOL_PID=539 to end with SIGTERM...
--40000LOG 12:03:15:505837300 wait_pid successfully managed to SIGTERM:VID_TOOL_PID=539 within less than 6s
--40000LOG 12:03:15:805972400 Will try to fix the videos...
--40000LOG 12:03:16:697745100 Fixing perms for /home/seluser/videos/vid_chrome_or_firefox_40000.mkv*
--40000LOG 12:03:17:550608200 Changing video encoding from mkv to mp4...
